<svg width="344" height="68" viewBox="0 0 344 68" fill="none" xmlns="http://www.w3.org/2000/svg">
<mask id="path-1-outside-1_2_4" maskUnits="userSpaceOnUse" x="0" y="20" width="325" height="28" fill="black">
<rect fill="white" y="20" width="325" height="28"/>
<path d="M17.192 22.696V25.064H11.112V45H8.2V25.064H2.088V22.696H17.192ZM38.0885 25.064V32.52H46.2165V34.92H38.0885V42.6H47.1765V45H35.1765V22.664H47.1765V25.064H38.0885ZM64.8947 33.832C64.8947 31.656 65.3854 29.704 66.3667 27.976C67.3481 26.2267 68.6814 24.8613 70.3667 23.88C72.0734 22.8987 73.9614 22.408 76.0308 22.408C78.4627 22.408 80.5854 22.9947 82.3988 24.168C84.2121 25.3413 85.5347 27.0053 86.3668 29.16H82.8787C82.2601 27.816 81.3641 26.7813 80.1908 26.056C79.0387 25.3307 77.6521 24.968 76.0308 24.968C74.4734 24.968 73.0761 25.3307 71.8387 26.056C70.6014 26.7813 69.6307 27.816 68.9267 29.16C68.2227 30.4827 67.8707 32.04 67.8707 33.832C67.8707 35.6027 68.2227 37.16 68.9267 38.504C69.6307 39.8267 70.6014 40.8507 71.8387 41.576C73.0761 42.3013 74.4734 42.664 76.0308 42.664C77.6521 42.664 79.0387 42.312 80.1908 41.608C81.3641 40.8827 82.2601 39.848 82.8787 38.504H86.3668C85.5347 40.6373 84.2121 42.2907 82.3988 43.464C80.5854 44.616 78.4627 45.192 76.0308 45.192C73.9614 45.192 72.0734 44.712 70.3667 43.752C68.6814 42.7707 67.3481 41.416 66.3667 39.688C65.3854 37.96 64.8947 36.008 64.8947 33.832ZM122.285 22.696V45H119.373V34.888H108.013V45H105.101V22.696H108.013V32.488H119.373V22.696H122.285ZM171.661 45.224C170.189 45.224 168.866 44.968 167.693 44.456C166.541 43.9227 165.634 43.1973 164.973 42.28C164.312 41.3413 163.97 40.264 163.949 39.048H167.053C167.16 40.0933 167.586 40.9787 168.333 41.704C169.101 42.408 170.21 42.76 171.661 42.76C173.048 42.76 174.136 42.4187 174.925 41.736C175.736 41.032 176.141 40.136 176.141 39.048C176.141 38.1947 175.906 37.5013 175.437 36.968C174.968 36.4347 174.381 36.0293 173.677 35.752C172.973 35.4747 172.024 35.176 170.829 34.856C169.357 34.472 168.173 34.088 167.277 33.704C166.402 33.32 165.645 32.7227 165.005 31.912C164.386 31.08 164.077 29.9707 164.077 28.584C164.077 27.368 164.386 26.2907 165.005 25.352C165.624 24.4133 166.488 23.688 167.597 23.176C168.728 22.664 170.018 22.408 171.469 22.408C173.56 22.408 175.266 22.9307 176.589 23.976C177.933 25.0213 178.69 26.408 178.861 28.136H175.661C175.554 27.2827 175.106 26.536 174.317 25.896C173.528 25.2347 172.482 24.904 171.181 24.904C169.965 24.904 168.973 25.224 168.205 25.864C167.437 26.4827 167.053 27.3573 167.053 28.488C167.053 29.2987 167.277 29.96 167.725 30.472C168.194 30.984 168.76 31.3787 169.421 31.656C170.104 31.912 171.053 32.2107 172.269 32.552C173.741 32.9573 174.925 33.3627 175.821 33.768C176.717 34.152 177.485 34.76 178.125 35.592C178.765 36.4027 179.085 37.512 179.085 38.92C179.085 40.008 178.797 41.032 178.221 41.992C177.645 42.952 176.792 43.7307 175.661 44.328C174.53 44.9253 173.197 45.224 171.661 45.224ZM210.954 40.04H201.226L199.434 45H196.362L204.426 22.824H207.786L215.818 45H212.746L210.954 40.04ZM210.122 37.672L206.09 26.408L202.058 37.672H210.122ZM252.165 22.696L243.749 45H240.389L231.973 22.696H235.077L242.085 41.928L249.093 22.696H252.165ZM288.19 22.696L279.774 45H276.414L267.998 22.696H271.102L278.11 41.928L285.118 22.696H288.19ZM321.399 22.696L314.135 36.584V45H311.223V36.584L303.927 22.696H307.159L312.663 33.992L318.167 22.696H321.399Z"/>
</mask>
<path d="M17.192 22.696H19.192V20.696H17.192V22.696ZM17.192 25.064V27.064H19.192V25.064H17.192ZM11.112 25.064V23.064H9.112V25.064H11.112ZM11.112 45V47H13.112V45H11.112ZM8.2 45H6.2V47H8.2V45ZM8.2 25.064H10.2V23.064H8.2V25.064ZM2.088 25.064H0.0880001V27.064H2.088V25.064ZM2.088 22.696V20.696H0.0880001V22.696H2.088ZM15.192 22.696V25.064H19.192V22.696H15.192ZM17.192 23.064H11.112V27.064H17.192V23.064ZM9.112 25.064V45H13.112V25.064H9.112ZM11.112 43H8.2V47H11.112V43ZM10.2 45V25.064H6.2V45H10.2ZM8.2 23.064H2.088V27.064H8.2V23.064ZM4.088 25.064V22.696H0.0880001V25.064H4.088ZM2.088 24.696H17.192V20.696H2.088V24.696ZM38.0885 25.064V23.064H36.0885V25.064H38.0885ZM38.0885 32.52H36.0885V34.52H38.0885V32.52ZM46.2165 32.52H48.2165V30.52H46.2165V32.52ZM46.2165 34.92V36.92H48.2165V34.92H46.2165ZM38.0885 34.92V32.92H36.0885V34.92H38.0885ZM38.0885 42.6H36.0885V44.6H38.0885V42.6ZM47.1765 42.6H49.1765V40.6H47.1765V42.6ZM47.1765 45V47H49.1765V45H47.1765ZM35.1765 45H33.1765V47H35.1765V45ZM35.1765 22.664V20.664H33.1765V22.664H35.1765ZM47.1765 22.664H49.1765V20.664H47.1765V22.664ZM47.1765 25.064V27.064H49.1765V25.064H47.1765ZM36.0885 25.064V32.52H40.0885V25.064H36.0885ZM38.0885 34.52H46.2165V30.52H38.0885V34.52ZM44.2165 32.52V34.92H48.2165V32.52H44.2165ZM46.2165 32.92H38.0885V36.92H46.2165V32.92ZM36.0885 34.92V42.6H40.0885V34.92H36.0885ZM38.0885 44.6H47.1765V40.6H38.0885V44.6ZM45.1765 42.6V45H49.1765V42.6H45.1765ZM47.1765 43H35.1765V47H47.1765V43ZM37.1765 45V22.664H33.1765V45H37.1765ZM35.1765 24.664H47.1765V20.664H35.1765V24.664ZM45.1765 22.664V25.064H49.1765V22.664H45.1765ZM47.1765 23.064H38.0885V27.064H47.1765V23.064ZM66.3667 27.976L68.1059 28.9637L68.111 28.9545L66.3667 27.976ZM70.3667 23.88L69.3698 22.1462L69.3604 22.1516L70.3667 23.88ZM82.3988 24.168L83.4853 22.4889L83.4853 22.4889L82.3988 24.168ZM86.3668 29.16V31.16H89.283L88.2325 28.4396L86.3668 29.16ZM82.8787 29.16L81.062 29.9963L81.5977 31.16H82.8787V29.16ZM80.1908 26.056L79.1251 27.7485L79.1321 27.7529L79.1391 27.7572L80.1908 26.056ZM71.8387 26.056L72.8502 27.7814L72.8502 27.7814L71.8387 26.056ZM68.9267 29.16L70.6923 30.0997L70.6984 30.088L68.9267 29.16ZM68.9267 38.504L67.155 39.432L67.1613 39.4437L68.9267 38.504ZM71.8387 41.576L72.8502 39.8506L72.8502 39.8506L71.8387 41.576ZM80.1908 41.608L81.2337 43.3146L81.2424 43.3092L80.1908 41.608ZM82.8787 38.504V36.504H81.5977L81.062 37.6677L82.8787 38.504ZM86.3668 38.504L88.2301 39.2307L89.2935 36.504H86.3668V38.504ZM82.3988 43.464L83.4712 45.1521L83.4783 45.1477L83.4853 45.1431L82.3988 43.464ZM70.3667 43.752L69.3604 45.4804L69.3732 45.4878L69.3862 45.4952L70.3667 43.752ZM66.3667 39.688L68.1059 38.7003L66.3667 39.688ZM66.8947 33.832C66.8947 31.9685 67.3115 30.3625 68.1059 28.9637L64.6276 26.9883C63.4594 29.0455 62.8947 31.3435 62.8947 33.832H66.8947ZM68.111 28.9545C68.9229 27.5072 70.0054 26.4048 71.3731 25.6083L69.3604 22.1516C67.3575 23.3179 65.7732 24.9461 64.6225 26.9975L68.111 28.9545ZM71.3637 25.6138C72.7513 24.8159 74.2927 24.408 76.0308 24.408V20.408C73.6301 20.408 71.3955 20.9814 69.3698 22.1462L71.3637 25.6138ZM76.0308 24.408C78.1273 24.408 79.8622 24.9089 81.3122 25.8471L83.4853 22.4889C81.3086 21.0804 78.7982 20.408 76.0308 20.408V24.408ZM81.3122 25.8471C82.746 26.7748 83.8099 28.0906 84.501 29.8804L88.2325 28.4396C87.2596 25.9201 85.6782 23.9078 83.4853 22.4889L81.3122 25.8471ZM86.3668 27.16H82.8787V31.16H86.3668V27.16ZM84.6955 28.3237C83.9249 26.6496 82.7748 25.3021 81.2424 24.3548L79.1391 27.7572C79.9533 28.2605 80.5953 28.9824 81.062 29.9963L84.6955 28.3237ZM81.2564 24.3635C79.7288 23.4017 77.9563 22.968 76.0308 22.968V26.968C77.3478 26.968 78.3487 27.2596 79.1251 27.7485L81.2564 24.3635ZM76.0308 22.968C74.1494 22.968 72.3975 23.4102 70.8273 24.3306L72.8502 27.7814C73.7547 27.2512 74.7975 26.968 76.0308 26.968V22.968ZM70.8273 24.3306C69.2479 25.2565 68.0223 26.5763 67.1551 28.232L70.6984 30.088C71.2392 29.0557 71.9549 28.3062 72.8502 27.7814L70.8273 24.3306ZM67.1613 28.2203C66.2758 29.8839 65.8707 31.7762 65.8707 33.832H69.8707C69.8707 32.3038 70.1697 31.0815 70.6922 30.0997L67.1613 28.2203ZM65.8707 33.832C65.8707 35.8718 66.2779 37.7573 67.1551 39.432L70.6984 37.576C70.1676 36.5627 69.8707 35.3335 69.8707 33.832H65.8707ZM67.1613 39.4437C68.031 41.0777 69.2562 42.3804 70.8273 43.3014L72.8502 39.8506C71.9467 39.321 71.2305 38.5757 70.6922 37.5643L67.1613 39.4437ZM70.8273 43.3014C72.3975 44.2218 74.1494 44.664 76.0308 44.664V40.664C74.7975 40.664 73.7547 40.3808 72.8502 39.8506L70.8273 43.3014ZM76.0308 44.664C77.9457 44.664 79.7097 44.2459 81.2336 43.3146L79.1479 39.9014C78.3678 40.3781 77.3584 40.664 76.0308 40.664V44.664ZM81.2424 43.3092C82.7748 42.3619 83.9249 41.0144 84.6955 39.3403L81.062 37.6677C80.5953 38.6816 79.9533 39.4035 79.1391 39.9068L81.2424 43.3092ZM82.8787 40.504H86.3668V36.504H82.8787V40.504ZM84.5034 37.7773C83.8142 39.5445 82.7512 40.8538 81.3122 41.7849L83.4853 45.1431C85.6729 43.7276 87.2553 41.7302 88.2301 39.2307L84.5034 37.7773ZM81.3263 41.7759C79.8745 42.6982 78.1345 43.192 76.0308 43.192V47.192C78.791 47.192 81.2964 46.5338 83.4712 45.1521L81.3263 41.7759ZM76.0308 43.192C74.2847 43.192 72.7374 42.7908 71.3473 42.0088L69.3862 45.4952C71.4094 46.6332 73.6382 47.192 76.0308 47.192V43.192ZM71.3731 42.0236C69.9992 41.2236 68.9162 40.1272 68.1059 38.7003L64.6276 40.6756C65.78 42.7048 67.3636 44.3177 69.3604 45.4804L71.3731 42.0236ZM68.1059 38.7003C67.3115 37.3015 66.8947 35.6955 66.8947 33.832H62.8947C62.8947 36.3205 63.4594 38.6185 64.6276 40.6756L68.1059 38.7003ZM122.285 22.696H124.285V20.696H122.285V22.696ZM122.285 45V47H124.285V45H122.285ZM119.373 45H117.373V47H119.373V45ZM119.373 34.888H121.373V32.888H119.373V34.888ZM108.013 34.888V32.888H106.013V34.888H108.013ZM108.013 45V47H110.013V45H108.013ZM105.101 45H103.101V47H105.101V45ZM105.101 22.696V20.696H103.101V22.696H105.101ZM108.013 22.696H110.013V20.696H108.013V22.696ZM108.013 32.488H106.013V34.488H108.013V32.488ZM119.373 32.488V34.488H121.373V32.488H119.373ZM119.373 22.696V20.696H117.373V22.696H119.373ZM120.285 22.696V45H124.285V22.696H120.285ZM122.285 43H119.373V47H122.285V43ZM121.373 45V34.888H117.373V45H121.373ZM119.373 32.888H108.013V36.888H119.373V32.888ZM106.013 34.888V45H110.013V34.888H106.013ZM108.013 43H105.101V47H108.013V43ZM107.101 45V22.696H103.101V45H107.101ZM105.101 24.696H108.013V20.696H105.101V24.696ZM106.013 22.696V32.488H110.013V22.696H106.013ZM108.013 34.488H119.373V30.488H108.013V34.488ZM121.373 32.488V22.696H117.373V32.488H121.373ZM119.373 24.696H122.285V20.696H119.373V24.696ZM167.693 44.456L166.853 46.2709L166.873 46.2802L166.893 46.2891L167.693 44.456ZM164.973 42.28L163.338 43.4319L163.344 43.4408L163.351 43.4496L164.973 42.28ZM163.949 39.048V37.048H161.914L161.949 39.0831L163.949 39.048ZM167.053 39.048L169.043 38.845L168.859 37.048H167.053V39.048ZM168.333 41.704L166.939 43.1386L166.96 43.1587L166.982 43.1783L168.333 41.704ZM174.925 41.736L176.233 43.2487L176.236 43.2461L174.925 41.736ZM175.437 36.968L173.936 38.2893L173.936 38.2893L175.437 36.968ZM173.677 35.752L172.944 37.6128L172.944 37.6128L173.677 35.752ZM170.829 34.856L171.346 32.9241L171.334 32.9208L170.829 34.856ZM167.277 33.704L166.473 35.5353L166.481 35.5388L166.489 35.5423L167.277 33.704ZM165.005 31.912L163.4 33.1054L163.417 33.1286L163.435 33.1513L165.005 31.912ZM165.005 25.352L166.675 26.4526L166.675 26.4526L165.005 25.352ZM167.597 23.176L166.772 21.3541L166.765 21.3571L166.759 21.3601L167.597 23.176ZM176.589 23.976L175.349 25.5451L175.355 25.5499L175.361 25.5547L176.589 23.976ZM178.861 28.136V30.136H181.068L180.851 27.9394L178.861 28.136ZM175.661 28.136L173.676 28.3841L173.895 30.136H175.661V28.136ZM174.317 25.896L173.033 27.429L173.045 27.4394L173.057 27.4495L174.317 25.896ZM168.205 25.864L169.46 27.4215L169.473 27.4111L169.485 27.4004L168.205 25.864ZM167.725 30.472L166.22 31.789L166.235 31.8064L166.251 31.8234L167.725 30.472ZM169.421 31.656L168.648 33.5004L168.683 33.5152L168.719 33.5287L169.421 31.656ZM172.269 32.552L171.728 34.4776L171.738 34.4802L172.269 32.552ZM175.821 33.768L174.997 35.5902L175.015 35.5984L175.033 35.6063L175.821 33.768ZM178.125 35.592L176.54 36.8114L176.547 36.8214L176.555 36.8313L178.125 35.592ZM178.221 41.992L179.936 43.021L179.936 43.021L178.221 41.992ZM175.661 44.328L174.727 42.5596L175.661 44.328ZM171.661 43.224C170.423 43.224 169.379 43.0095 168.493 42.6229L166.893 46.2891C168.354 46.9265 169.955 47.224 171.661 47.224V43.224ZM168.533 42.6411C167.654 42.2341 167.032 41.7162 166.595 41.1104L163.351 43.4496C164.237 44.6785 165.428 45.6113 166.853 46.2709L168.533 42.6411ZM166.608 41.1281C166.191 40.5366 165.963 39.8535 165.949 39.0129L161.949 39.0831C161.977 40.6745 162.432 42.146 163.338 43.4319L166.608 41.1281ZM163.949 41.048H167.053V37.048H163.949V41.048ZM165.063 39.251C165.217 40.7594 165.852 42.0822 166.939 43.1386L169.727 40.2694C169.321 39.8751 169.102 39.4273 169.043 38.845L165.063 39.251ZM166.982 43.1783C168.242 44.3335 169.907 44.76 171.661 44.76V40.76C170.514 40.76 169.96 40.4825 169.684 40.2297L166.982 43.1783ZM171.661 44.76C173.368 44.76 174.976 44.3365 176.233 43.2487L173.617 40.2233C173.296 40.5008 172.727 40.76 171.661 40.76V44.76ZM176.236 43.2461C177.491 42.1564 178.141 40.7065 178.141 39.048H174.141C174.141 39.5655 173.98 39.9076 173.614 40.2259L176.236 43.2461ZM178.141 39.048C178.141 37.811 177.791 36.6156 176.938 35.6467L173.936 38.2893C174.022 38.3871 174.141 38.5783 174.141 39.048H178.141ZM176.938 35.6467C176.246 34.8597 175.39 34.2771 174.41 33.8912L172.944 37.6128C173.372 37.7816 173.689 38.0096 173.936 38.2893L176.938 35.6467ZM174.41 33.8912C173.606 33.5743 172.575 33.2531 171.346 32.9241L170.312 36.7879C171.473 37.0989 172.34 37.375 172.944 37.6128L174.41 33.8912ZM171.334 32.9208C169.911 32.5497 168.833 32.195 168.065 31.8657L166.489 35.5423C167.513 35.981 168.803 36.3943 170.324 36.7912L171.334 32.9208ZM168.081 31.8727C167.53 31.6309 167.029 31.2477 166.575 30.6727L163.435 33.1513C164.261 34.1976 165.274 35.0091 166.473 35.5353L168.081 31.8727ZM166.61 30.7186C166.322 30.3314 166.077 29.6845 166.077 28.584H162.077C162.077 30.2568 162.451 31.8286 163.4 33.1054L166.61 30.7186ZM166.077 28.584C166.077 27.7259 166.289 27.0378 166.675 26.4526L163.335 24.2514C162.483 25.5435 162.077 27.0101 162.077 28.584H166.077ZM166.675 26.4526C167.071 25.8522 167.634 25.3617 168.435 24.9919L166.759 21.3601C165.342 22.0142 164.177 22.9745 163.335 24.2514L166.675 26.4526ZM168.422 24.9979C169.253 24.6214 170.255 24.408 171.469 24.408V20.408C169.781 20.408 168.202 20.7065 166.772 21.3541L168.422 24.9979ZM171.469 24.408C173.22 24.408 174.457 24.8405 175.349 25.5451L177.829 22.4069C176.075 21.0208 173.899 20.408 171.469 20.408V24.408ZM175.361 25.5547C176.263 26.2559 176.753 27.1381 176.871 28.3326L180.851 27.9394C180.628 25.6779 179.603 23.7868 177.817 22.3973L175.361 25.5547ZM178.861 26.136H175.661V30.136H178.861V26.136ZM177.646 27.8879C177.463 26.4306 176.689 25.2446 175.577 24.3425L173.057 27.4495C173.523 27.8274 173.645 28.1347 173.676 28.3841L177.646 27.8879ZM175.601 24.363C174.365 23.3274 172.825 22.904 171.181 22.904V26.904C172.14 26.904 172.69 27.142 173.033 27.429L175.601 24.363ZM171.181 22.904C169.602 22.904 168.125 23.327 166.925 24.3276L169.485 27.4004C169.821 27.121 170.328 26.904 171.181 26.904V22.904ZM166.95 24.3065C165.638 25.3633 165.053 26.8519 165.053 28.488H169.053C169.053 27.8627 169.236 27.602 169.46 27.4215L166.95 24.3065ZM165.053 28.488C165.053 29.6855 165.394 30.8451 166.22 31.789L169.23 29.155C169.16 29.0749 169.053 28.9118 169.053 28.488H165.053ZM166.251 31.8234C166.922 32.5555 167.729 33.115 168.648 33.5004L170.194 29.8116C169.791 29.6423 169.467 29.4125 169.199 29.1206L166.251 31.8234ZM168.719 33.5287C169.479 33.8138 170.491 34.1302 171.728 34.4776L172.81 30.6264C171.615 30.2911 170.728 30.0102 170.123 29.7833L168.719 33.5287ZM171.738 34.4802C173.158 34.8712 174.232 35.2445 174.997 35.5902L176.645 31.9458C175.618 31.4809 174.324 31.0434 172.8 30.6238L171.738 34.4802ZM175.033 35.6063C175.591 35.8453 176.092 36.229 176.54 36.8114L179.71 34.3726C178.878 33.291 177.843 32.4587 176.609 31.9297L175.033 35.6063ZM176.555 36.8313C176.831 37.18 177.085 37.7998 177.085 38.92H181.085C181.085 37.2242 180.699 35.6253 179.695 34.3527L176.555 36.8313ZM177.085 38.92C177.085 39.6346 176.901 40.3044 176.506 40.963L179.936 43.021C180.693 41.7596 181.085 40.3814 181.085 38.92H177.085ZM176.506 40.963C176.143 41.5674 175.581 42.1081 174.727 42.5596L176.595 46.0964C178.002 45.3532 179.147 44.3366 179.936 43.021L176.506 40.963ZM174.727 42.5596C173.937 42.9771 172.936 43.224 171.661 43.224V47.224C173.458 47.224 175.124 46.8736 176.595 46.0964L174.727 42.5596ZM210.954 40.04L212.835 39.3604L212.358 38.04H210.954V40.04ZM201.226 40.04V38.04H199.822L199.345 39.3604L201.226 40.04ZM199.434 45V47H200.838L201.315 45.6796L199.434 45ZM196.362 45L194.483 44.3165L193.507 47H196.362V45ZM204.426 22.824V20.824H203.025L202.547 22.1405L204.426 22.824ZM207.786 22.824L209.667 22.1429L209.189 20.824H207.786V22.824ZM215.818 45V47H218.67L217.699 44.3189L215.818 45ZM212.746 45L210.865 45.6796L211.342 47H212.746V45ZM210.122 37.672V39.672H212.962L212.005 36.998L210.122 37.672ZM206.09 26.408L207.973 25.734L206.09 20.4735L204.207 25.734L206.09 26.408ZM202.058 37.672L200.175 36.998L199.218 39.672H202.058V37.672ZM210.954 38.04H201.226V42.04H210.954V38.04ZM199.345 39.3604L197.553 44.3204L201.315 45.6796L203.107 40.7196L199.345 39.3604ZM199.434 43H196.362V47H199.434V43ZM198.242 45.6835L206.306 23.5075L202.547 22.1405L194.483 44.3165L198.242 45.6835ZM204.426 24.824H207.786V20.824H204.426V24.824ZM205.906 23.5051L213.938 45.6811L217.699 44.3189L209.667 22.1429L205.906 23.5051ZM215.818 43H212.746V47H215.818V43ZM214.627 44.3204L212.835 39.3604L209.073 40.7196L210.865 45.6796L214.627 44.3204ZM212.005 36.998L207.973 25.734L204.207 27.082L208.239 38.346L212.005 36.998ZM204.207 25.734L200.175 36.998L203.941 38.346L207.973 27.082L204.207 25.734ZM202.058 39.672H210.122V35.672H202.058V39.672ZM252.165 22.696L254.036 23.4021L255.057 20.696H252.165V22.696ZM243.749 45V47H245.132L245.62 45.7061L243.749 45ZM240.389 45L238.518 45.7061L239.006 47H240.389V45ZM231.973 22.696V20.696H229.08L230.102 23.4021L231.973 22.696ZM235.077 22.696L236.956 22.0113L236.477 20.696H235.077V22.696ZM242.085 41.928L240.206 42.6127L242.085 47.7696L243.964 42.6127L242.085 41.928ZM249.093 22.696V20.696H247.693L247.214 22.0113L249.093 22.696ZM250.294 21.9899L241.878 44.2939L245.62 45.7061L254.036 23.4021L250.294 21.9899ZM243.749 43H240.389V47H243.749V43ZM242.26 44.2939L233.844 21.9899L230.102 23.4021L238.518 45.7061L242.26 44.2939ZM231.973 24.696H235.077V20.696H231.973V24.696ZM233.198 23.3807L240.206 42.6127L243.964 41.2433L236.956 22.0113L233.198 23.3807ZM243.964 42.6127L250.972 23.3807L247.214 22.0113L240.206 41.2433L243.964 42.6127ZM249.093 24.696H252.165V20.696H249.093V24.696ZM288.19 22.696L290.061 23.4021L291.082 20.696H288.19V22.696ZM279.774 45V47H281.157L281.645 45.7061L279.774 45ZM276.414 45L274.543 45.7061L275.031 47H276.414V45ZM267.998 22.696V20.696H265.105L266.127 23.4021L267.998 22.696ZM271.102 22.696L272.981 22.0113L272.502 20.696H271.102V22.696ZM278.11 41.928L276.231 42.6127L278.11 47.7696L279.989 42.6127L278.11 41.928ZM285.118 22.696V20.696H283.718L283.239 22.0113L285.118 22.696ZM286.319 21.9899L277.903 44.2939L281.645 45.7061L290.061 23.4021L286.319 21.9899ZM279.774 43H276.414V47H279.774V43ZM278.285 44.2939L269.869 21.9899L266.127 23.4021L274.543 45.7061L278.285 44.2939ZM267.998 24.696H271.102V20.696H267.998V24.696ZM269.223 23.3807L276.231 42.6127L279.989 41.2433L272.981 22.0113L269.223 23.3807ZM279.989 42.6127L286.997 23.3807L283.239 22.0113L276.231 41.2433L279.989 42.6127ZM285.118 24.696H288.19V20.696H285.118V24.696ZM321.399 22.696L323.171 23.6229L324.702 20.696H321.399V22.696ZM314.135 36.584L312.363 35.6571L312.135 36.0925V36.584H314.135ZM314.135 45V47H316.135V45H314.135ZM311.223 45H309.223V47H311.223V45ZM311.223 36.584H313.223V36.0906L312.993 35.6539L311.223 36.584ZM303.927 22.696V20.696H300.617L302.156 23.6261L303.927 22.696ZM307.159 22.696L308.957 21.82L308.409 20.696H307.159V22.696ZM312.663 33.992L310.865 34.868L312.663 38.558L314.461 34.868L312.663 33.992ZM318.167 22.696V20.696H316.916L316.369 21.82L318.167 22.696ZM319.627 21.7691L312.363 35.6571L315.907 37.5109L323.171 23.6229L319.627 21.7691ZM312.135 36.584V45H316.135V36.584H312.135ZM314.135 43H311.223V47H314.135V43ZM313.223 45V36.584H309.223V45H313.223ZM312.993 35.6539L305.697 21.7659L302.156 23.6261L309.452 37.5141L312.993 35.6539ZM303.927 24.696H307.159V20.696H303.927V24.696ZM305.361 23.572L310.865 34.868L314.461 33.116L308.957 21.82L305.361 23.572ZM314.461 34.868L319.965 23.572L316.369 21.82L310.865 33.116L314.461 34.868ZM318.167 24.696H321.399V20.696H318.167V24.696Z" fill="url(#paint0_linear_2_4)" mask="url(#path-1-outside-1_2_4)"/>
<defs>
<linearGradient id="paint0_linear_2_4" x1="167" y1="19" x2="167" y2="45" gradientUnits="userSpaceOnUse">
<stop stop-color="#A8D5FE"/>
<stop offset="1" stop-color="#7241FF"/>
</linearGradient>
</defs>
</svg>
