<svg width="168" height="168" viewBox="0 0 168 168" fill="none" xmlns="http://www.w3.org/2000/svg">
<path d="M19.1429 53.2615L14 47H80.2857V64.0769L75.1429 59.5231V53.2615H19.1429Z" fill="black"/>
<path d="M69.4286 59.5231H27.7143L31.1429 65.2154H66.5714L83.7143 86.2769L100.857 65.2154H136.857L139.714 59.5231H99.1429L83.7143 78.3077L69.4286 59.5231Z" fill="black"/>
<path d="M66.5714 77.1692H60.2857V103.354L66.5714 109.046V77.1692Z" fill="black"/>
<path d="M79.7143 90.2615L75.7143 86.2769L75.1429 117.015L79.7143 121V90.2615Z" fill="black"/>
<path d="M88.8571 90.2615L92.8571 86.2769V117.585L88.8571 121V90.2615Z" fill="black"/>
<path d="M107.143 76.6H100.857L101.429 109.046L107.143 103.354V76.6Z" fill="black"/>
<path d="M87.7143 47V64.0769L93.4286 59.5231V53.2615H148.857L154 47H87.7143Z" fill="black"/>
</svg>
