<svg width="1053" height="296" viewBox="0 0 1053 296" fill="none" xmlns="http://www.w3.org/2000/svg">
<path d="M144.774 259.468V96.5M144.774 259.468C144.62 179.704 90.2045 148.479 35.1616 136.55M144.774 259.468C159.174 259.778 172.265 257.807 184.006 254.008M144.774 259.468C130.228 259.156 117.158 256.845 105.543 252.922M144.774 259.468C144.679 210.365 163.288 177.669 192.413 158.224M93.7854 47.9343C108.223 40.7824 125.241 36.6012 144.774 36.5C162.908 36.8323 178.767 40.1032 192.413 45.6248M93.7854 47.9343C94.1742 74.2752 113.549 96.7859 144.774 96.5M93.7854 47.9343V158.224M93.7854 47.9343C83.2443 53.1558 74.0781 59.9608 66.3116 67.9176C48.2826 86.3884 37.7962 111.066 35.1616 136.55M192.413 45.6248C192.765 74.2068 176 96.2141 144.774 96.5M192.413 45.6248C233.009 62.0517 254.022 98.3986 257.102 136.55M192.413 45.6248V158.224M257.102 136.55C258.182 149.928 257.057 163.529 253.798 176.57M257.102 136.55C232.778 139.142 210.555 146.112 192.413 158.224M35.1616 136.55C33.6771 150.909 34.6854 165.524 38.2417 179.428M184.006 254.008C221.434 241.898 245.142 211.206 253.798 176.57M184.006 254.008C184.006 202.297 203.622 176.57 253.798 176.57M105.543 252.922C68.7453 240.497 46.5463 211.898 38.2417 179.428M105.543 252.922C105.543 202.297 77.5206 179.428 38.2417 179.428" stroke="#FFB703" stroke-width="16"/>
<path d="M381.789 166.557C381.789 167.76 381.574 168.877 381.145 169.908C380.715 170.939 380.113 171.842 379.34 172.615C378.566 173.346 377.664 173.926 376.633 174.355C375.602 174.785 374.506 175 373.346 175H335.576C332.01 175 328.4 174.613 324.748 173.84C321.096 173.066 317.551 171.885 314.113 170.295C310.719 168.662 307.518 166.6 304.51 164.107C301.502 161.615 298.859 158.672 296.582 155.277C294.348 151.84 292.586 147.93 291.297 143.547C290.008 139.121 289.363 134.201 289.363 128.787V82.5742H306.121V128.787C306.121 133.514 306.766 137.51 308.055 140.775C309.387 144.041 311.062 146.77 313.082 148.961C315.102 151.152 317.314 152.871 319.721 154.117C322.127 155.363 324.404 156.287 326.553 156.889C328.744 157.49 330.656 157.877 332.289 158.049C333.965 158.178 335.061 158.242 335.576 158.242H365.031V82.5742H381.789V166.557ZM486.203 175H409.762C408.559 175 407.441 174.785 406.41 174.355C405.379 173.926 404.477 173.346 403.703 172.615C402.973 171.842 402.393 170.939 401.963 169.908C401.533 168.877 401.318 167.76 401.318 166.557V82.5742H418.076V158.242H486.203V175ZM590.875 167.846C590.875 169.049 590.639 170.166 590.166 171.197C589.736 172.229 589.135 173.131 588.361 173.904C587.631 174.635 586.75 175.215 585.719 175.645C584.688 176.074 583.592 176.289 582.432 176.289C581.4 176.289 580.348 176.096 579.273 175.709C578.242 175.322 577.318 174.699 576.502 173.84L515.271 109.902V175H498.514V89.7285C498.514 88.0098 498.986 86.4629 499.932 85.0879C500.92 83.6699 502.166 82.6172 503.67 81.9297C505.26 81.2852 506.893 81.1348 508.568 81.4785C510.244 81.7793 511.684 82.5527 512.887 83.7988L574.117 147.672V82.5742H590.875V167.846ZM695.289 175H618.848C617.645 175 616.527 174.785 615.496 174.355C614.465 173.926 613.562 173.346 612.789 172.615C612.059 171.842 611.479 170.939 611.049 169.908C610.619 168.877 610.404 167.76 610.404 166.557V82.5742H627.162V158.242H695.289V175ZM798.285 175H781.527V152.312H722.617V175H705.859V128.787C705.859 122.041 707.02 115.832 709.34 110.16C711.66 104.488 714.883 99.6113 719.008 95.5293C723.133 91.4473 728.01 88.2676 733.639 85.9902C739.268 83.7129 745.412 82.5742 752.072 82.5742H789.842C791.002 82.5742 792.098 82.7891 793.129 83.2188C794.16 83.6484 795.062 84.25 795.836 85.0234C796.609 85.7969 797.211 86.6992 797.641 87.7305C798.07 88.7617 798.285 89.8574 798.285 91.0176V175ZM722.617 135.555H781.527V99.332H752.072C751.557 99.332 750.461 99.418 748.785 99.5898C747.152 99.7188 745.24 100.084 743.049 100.686C740.9 101.287 738.623 102.211 736.217 103.457C733.811 104.703 731.598 106.422 729.578 108.613C727.559 110.805 725.883 113.555 724.551 116.863C723.262 120.129 722.617 124.104 722.617 128.787V135.555ZM910.047 154.697C910.047 156.76 909.682 158.973 908.951 161.336C908.264 163.699 907.104 165.891 905.471 167.91C903.881 169.93 901.797 171.627 899.219 173.002C896.641 174.334 893.482 175 889.744 175H826.129C824.926 175 823.809 174.785 822.777 174.355C821.746 173.926 820.844 173.346 820.07 172.615C819.34 171.842 818.76 170.939 818.33 169.908C817.9 168.877 817.686 167.76 817.686 166.557V91.0176C817.686 89.8574 817.9 88.7617 818.33 87.7305C818.76 86.6992 819.34 85.7969 820.07 85.0234C820.844 84.25 821.746 83.6484 822.777 83.2188C823.809 82.7891 824.926 82.5742 826.129 82.5742H882.203C884.266 82.5742 886.479 82.9395 888.842 83.6699C891.205 84.4004 893.396 85.582 895.416 87.2148C897.479 88.8047 899.176 90.8887 900.508 93.4668C901.883 96.0449 902.57 99.2031 902.57 102.941V106.1C902.57 109.064 902.076 112.266 901.088 115.703C900.1 119.098 898.51 122.32 896.318 125.371C898.209 126.531 899.971 127.928 901.604 129.561C903.279 131.193 904.74 133.084 905.986 135.232C907.232 137.381 908.221 139.809 908.951 142.516C909.682 145.223 910.047 148.209 910.047 151.475V154.697ZM893.289 151.475C893.289 149.283 892.945 147.328 892.258 145.609C891.57 143.848 890.604 142.344 889.357 141.098C888.111 139.852 886.607 138.906 884.846 138.262C883.084 137.574 881.107 137.23 878.916 137.23H841.146V120.344H871.375C873.566 120.344 875.543 120.021 877.305 119.377C879.066 118.689 880.57 117.723 881.816 116.477C883.062 115.23 884.008 113.748 884.652 112.029C885.34 110.268 885.684 108.291 885.684 106.1V102.941C885.684 100.535 884.523 99.332 882.203 99.332H834.443V158.242H889.744C890.045 158.242 890.41 158.221 890.84 158.178C891.27 158.135 891.656 158.006 892 157.791C892.344 157.576 892.645 157.211 892.902 156.695C893.16 156.18 893.289 155.471 893.289 154.568V151.475ZM1013.49 147.801C1013.49 151.109 1013.06 154.096 1012.21 156.76C1011.39 159.381 1010.29 161.701 1008.92 163.721C1007.54 165.74 1005.93 167.459 1004.08 168.877C1002.24 170.295 1000.32 171.455 998.348 172.357C996.371 173.26 994.352 173.926 992.289 174.355C990.27 174.785 988.357 175 986.553 175H921.906V158.242H986.553C989.775 158.242 992.268 157.297 994.029 155.406C995.834 153.516 996.736 150.98 996.736 147.801C996.736 146.254 996.5 144.836 996.027 143.547C995.555 142.258 994.867 141.141 993.965 140.195C993.105 139.25 992.031 138.52 990.742 138.004C989.496 137.488 988.1 137.23 986.553 137.23H948.01C945.303 137.23 942.381 136.758 939.244 135.812C936.107 134.824 933.186 133.256 930.479 131.107C927.814 128.959 925.58 126.145 923.775 122.664C922.014 119.184 921.133 114.93 921.133 109.902C921.133 104.875 922.014 100.643 923.775 97.2051C925.58 93.7246 927.814 90.9102 930.479 88.7617C933.186 86.5703 936.107 85.002 939.244 84.0566C942.381 83.0684 945.303 82.5742 948.01 82.5742H1005.05V99.332H948.01C944.83 99.332 942.338 100.299 940.533 102.232C938.771 104.166 937.891 106.723 937.891 109.902C937.891 113.125 938.771 115.682 940.533 117.572C942.338 119.42 944.83 120.344 948.01 120.344H986.553H986.682C988.486 120.387 990.398 120.645 992.418 121.117C994.438 121.547 996.436 122.234 998.412 123.18C1000.43 124.125 1002.34 125.328 1004.15 126.789C1005.95 128.207 1007.54 129.926 1008.92 131.945C1010.34 133.965 1011.45 136.285 1012.27 138.906C1013.09 141.527 1013.49 144.492 1013.49 147.801Z" fill="#FFB703"/>
<path d="M306.038 199.727V223H303.219V199.727H306.038ZM324.566 212.5V223H321.885V205.545H324.475V208.273H324.703C325.112 207.386 325.733 206.674 326.566 206.136C327.4 205.591 328.475 205.318 329.794 205.318C330.975 205.318 332.01 205.561 332.896 206.045C333.782 206.523 334.472 207.25 334.964 208.227C335.457 209.197 335.703 210.424 335.703 211.909V223H333.021V212.091C333.021 210.72 332.665 209.652 331.953 208.886C331.241 208.114 330.263 207.727 329.021 207.727C328.165 207.727 327.4 207.913 326.725 208.284C326.059 208.655 325.532 209.197 325.146 209.909C324.76 210.621 324.566 211.485 324.566 212.5ZM353.845 212.5V223H351.163V205.545H353.754V208.273H353.981C354.391 207.386 355.012 206.674 355.845 206.136C356.678 205.591 357.754 205.318 359.072 205.318C360.254 205.318 361.288 205.561 362.175 206.045C363.061 206.523 363.75 207.25 364.243 208.227C364.735 209.197 364.981 210.424 364.981 211.909V223H362.3V212.091C362.3 210.72 361.944 209.652 361.231 208.886C360.519 208.114 359.542 207.727 358.3 207.727C357.444 207.727 356.678 207.913 356.004 208.284C355.338 208.655 354.811 209.197 354.425 209.909C354.038 210.621 353.845 211.485 353.845 212.5ZM387.533 223.364C385.957 223.364 384.575 222.989 383.385 222.239C382.203 221.489 381.279 220.439 380.612 219.091C379.953 217.742 379.624 216.167 379.624 214.364C379.624 212.545 379.953 210.958 380.612 209.602C381.279 208.246 382.203 207.193 383.385 206.443C384.575 205.693 385.957 205.318 387.533 205.318C389.109 205.318 390.487 205.693 391.669 206.443C392.859 207.193 393.783 208.246 394.442 209.602C395.109 210.958 395.442 212.545 395.442 214.364C395.442 216.167 395.109 217.742 394.442 219.091C393.783 220.439 392.859 221.489 391.669 222.239C390.487 222.989 389.109 223.364 387.533 223.364ZM387.533 220.955C388.73 220.955 389.715 220.648 390.487 220.034C391.26 219.42 391.832 218.614 392.203 217.614C392.575 216.614 392.76 215.53 392.76 214.364C392.76 213.197 392.575 212.11 392.203 211.102C391.832 210.095 391.26 209.28 390.487 208.659C389.715 208.038 388.73 207.727 387.533 207.727C386.336 207.727 385.351 208.038 384.578 208.659C383.806 209.28 383.234 210.095 382.862 211.102C382.491 212.11 382.306 213.197 382.306 214.364C382.306 215.53 382.491 216.614 382.862 217.614C383.234 218.614 383.806 219.42 384.578 220.034C385.351 220.648 386.336 220.955 387.533 220.955ZM423.744 205.545L417.289 223H414.562L408.107 205.545H411.016L415.834 219.455H416.016L420.834 205.545H423.744ZM442.448 223.409C441.342 223.409 440.339 223.201 439.437 222.784C438.536 222.36 437.82 221.75 437.289 220.955C436.759 220.152 436.494 219.182 436.494 218.045C436.494 217.045 436.691 216.235 437.085 215.614C437.479 214.985 438.005 214.492 438.664 214.136C439.323 213.78 440.051 213.515 440.846 213.341C441.649 213.159 442.456 213.015 443.267 212.909C444.327 212.773 445.187 212.67 445.846 212.602C446.513 212.527 446.998 212.402 447.301 212.227C447.611 212.053 447.767 211.75 447.767 211.318V211.227C447.767 210.106 447.46 209.235 446.846 208.614C446.24 207.992 445.32 207.682 444.085 207.682C442.804 207.682 441.801 207.962 441.073 208.523C440.346 209.083 439.835 209.682 439.539 210.318L436.994 209.409C437.448 208.348 438.054 207.523 438.812 206.932C439.577 206.333 440.411 205.917 441.312 205.682C442.221 205.439 443.115 205.318 443.994 205.318C444.554 205.318 445.198 205.386 445.926 205.523C446.661 205.652 447.369 205.92 448.051 206.33C448.74 206.739 449.312 207.356 449.767 208.182C450.221 209.008 450.448 210.114 450.448 211.5V223H447.767V220.636H447.63C447.448 221.015 447.145 221.42 446.721 221.852C446.297 222.284 445.732 222.652 445.028 222.955C444.323 223.258 443.464 223.409 442.448 223.409ZM442.857 221C443.918 221 444.812 220.792 445.539 220.375C446.274 219.958 446.827 219.42 447.198 218.761C447.577 218.102 447.767 217.409 447.767 216.682V214.227C447.653 214.364 447.403 214.489 447.017 214.602C446.638 214.708 446.198 214.803 445.698 214.886C445.206 214.962 444.725 215.03 444.255 215.091C443.793 215.144 443.418 215.189 443.13 215.227C442.433 215.318 441.782 215.466 441.176 215.67C440.577 215.867 440.092 216.167 439.721 216.568C439.357 216.962 439.176 217.5 439.176 218.182C439.176 219.114 439.52 219.818 440.21 220.295C440.907 220.765 441.789 221 442.857 221ZM473.494 205.545V207.818H464.449V205.545H473.494ZM467.085 201.364H469.767V218C469.767 218.758 469.877 219.326 470.096 219.705C470.324 220.076 470.612 220.326 470.96 220.455C471.316 220.576 471.691 220.636 472.085 220.636C472.381 220.636 472.623 220.621 472.812 220.591C473.002 220.553 473.153 220.523 473.267 220.5L473.812 222.909C473.631 222.977 473.377 223.045 473.051 223.114C472.725 223.189 472.312 223.227 471.812 223.227C471.055 223.227 470.312 223.064 469.585 222.739C468.865 222.413 468.267 221.917 467.79 221.25C467.32 220.583 467.085 219.742 467.085 218.727V201.364ZM495.219 223.364C493.537 223.364 492.086 222.992 490.867 222.25C489.655 221.5 488.719 220.455 488.06 219.114C487.408 217.765 487.083 216.197 487.083 214.409C487.083 212.621 487.408 211.045 488.06 209.682C488.719 208.311 489.636 207.242 490.81 206.477C491.992 205.705 493.37 205.318 494.946 205.318C495.855 205.318 496.753 205.47 497.639 205.773C498.526 206.076 499.333 206.568 500.06 207.25C500.787 207.924 501.367 208.818 501.799 209.932C502.23 211.045 502.446 212.417 502.446 214.045V215.182H488.992V212.864H499.719C499.719 211.879 499.522 211 499.128 210.227C498.742 209.455 498.189 208.845 497.469 208.398C496.757 207.951 495.916 207.727 494.946 207.727C493.878 207.727 492.954 207.992 492.174 208.523C491.401 209.045 490.806 209.727 490.389 210.568C489.973 211.409 489.764 212.311 489.764 213.273V214.818C489.764 216.136 489.992 217.254 490.446 218.17C490.908 219.08 491.549 219.773 492.367 220.25C493.185 220.72 494.136 220.955 495.219 220.955C495.924 220.955 496.56 220.856 497.128 220.659C497.704 220.455 498.2 220.152 498.617 219.75C499.033 219.341 499.355 218.833 499.583 218.227L502.174 218.955C501.901 219.833 501.442 220.606 500.799 221.273C500.155 221.932 499.359 222.447 498.412 222.818C497.465 223.182 496.401 223.364 495.219 223.364ZM541.237 223L534.873 199.727H537.737L542.6 218.682H542.828L547.782 199.727H550.964L555.919 218.682H556.146L561.009 199.727H563.873L557.509 223H554.6L549.464 204.455H549.282L544.146 223H541.237ZM583.274 223.364C581.592 223.364 580.141 222.992 578.922 222.25C577.71 221.5 576.774 220.455 576.115 219.114C575.463 217.765 575.138 216.197 575.138 214.409C575.138 212.621 575.463 211.045 576.115 209.682C576.774 208.311 577.691 207.242 578.865 206.477C580.047 205.705 581.425 205.318 583.001 205.318C583.91 205.318 584.808 205.47 585.694 205.773C586.581 206.076 587.388 206.568 588.115 207.25C588.842 207.924 589.422 208.818 589.854 209.932C590.285 211.045 590.501 212.417 590.501 214.045V215.182H577.047V212.864H587.774C587.774 211.879 587.577 211 587.183 210.227C586.797 209.455 586.244 208.845 585.524 208.398C584.812 207.951 583.971 207.727 583.001 207.727C581.933 207.727 581.009 207.992 580.229 208.523C579.456 209.045 578.861 209.727 578.444 210.568C578.028 211.409 577.819 212.311 577.819 213.273V214.818C577.819 216.136 578.047 217.254 578.501 218.17C578.963 219.08 579.604 219.773 580.422 220.25C581.24 220.72 582.191 220.955 583.274 220.955C583.979 220.955 584.615 220.856 585.183 220.659C585.759 220.455 586.255 220.152 586.672 219.75C587.088 219.341 587.41 218.833 587.638 218.227L590.229 218.955C589.956 219.833 589.497 220.606 588.854 221.273C588.21 221.932 587.414 222.447 586.467 222.818C585.52 223.182 584.456 223.364 583.274 223.364ZM605.504 223V199.727H608.186V208.318H608.414C608.61 208.015 608.883 207.629 609.232 207.159C609.588 206.682 610.095 206.258 610.754 205.886C611.421 205.508 612.323 205.318 613.459 205.318C614.929 205.318 616.224 205.686 617.345 206.42C618.467 207.155 619.342 208.197 619.97 209.545C620.599 210.894 620.914 212.485 620.914 214.318C620.914 216.167 620.599 217.769 619.97 219.125C619.342 220.473 618.47 221.519 617.357 222.261C616.243 222.996 614.959 223.364 613.504 223.364C612.383 223.364 611.485 223.178 610.811 222.807C610.137 222.428 609.618 222 609.254 221.523C608.891 221.038 608.61 220.636 608.414 220.318H608.095V223H605.504ZM608.141 214.273C608.141 215.591 608.334 216.754 608.72 217.761C609.107 218.761 609.671 219.545 610.414 220.114C611.156 220.674 612.065 220.955 613.141 220.955C614.262 220.955 615.198 220.659 615.948 220.068C616.705 219.47 617.273 218.667 617.652 217.659C618.039 216.644 618.232 215.515 618.232 214.273C618.232 213.045 618.042 211.939 617.664 210.955C617.292 209.962 616.728 209.178 615.97 208.602C615.22 208.019 614.277 207.727 613.141 207.727C612.05 207.727 611.133 208.004 610.391 208.557C609.648 209.102 609.088 209.867 608.709 210.852C608.33 211.83 608.141 212.97 608.141 214.273ZM668.227 205.545C668.09 204.394 667.537 203.5 666.568 202.864C665.598 202.227 664.409 201.909 662.999 201.909C661.969 201.909 661.068 202.076 660.295 202.409C659.53 202.742 658.931 203.201 658.499 203.784C658.075 204.367 657.863 205.03 657.863 205.773C657.863 206.394 658.011 206.928 658.306 207.375C658.609 207.814 658.996 208.182 659.465 208.477C659.935 208.765 660.427 209.004 660.943 209.193C661.458 209.375 661.931 209.523 662.363 209.636L664.727 210.273C665.333 210.432 666.007 210.652 666.749 210.932C667.499 211.212 668.215 211.595 668.897 212.08C669.587 212.557 670.155 213.17 670.602 213.92C671.049 214.67 671.272 215.591 671.272 216.682C671.272 217.939 670.943 219.076 670.284 220.091C669.632 221.106 668.677 221.913 667.42 222.511C666.17 223.11 664.651 223.409 662.863 223.409C661.196 223.409 659.753 223.14 658.534 222.602C657.321 222.064 656.367 221.314 655.67 220.352C654.98 219.39 654.59 218.273 654.499 217H657.409C657.484 217.879 657.78 218.606 658.295 219.182C658.818 219.75 659.477 220.174 660.272 220.455C661.075 220.727 661.939 220.864 662.863 220.864C663.939 220.864 664.905 220.689 665.761 220.341C666.617 219.985 667.295 219.492 667.795 218.864C668.295 218.227 668.545 217.485 668.545 216.636C668.545 215.864 668.329 215.235 667.897 214.75C667.465 214.265 666.897 213.871 666.193 213.568C665.488 213.265 664.727 213 663.909 212.773L661.045 211.955C659.227 211.432 657.787 210.686 656.727 209.716C655.666 208.746 655.136 207.477 655.136 205.909C655.136 204.606 655.488 203.47 656.193 202.5C656.905 201.523 657.859 200.765 659.056 200.227C660.261 199.682 661.605 199.409 663.09 199.409C664.59 199.409 665.924 199.678 667.09 200.216C668.257 200.746 669.181 201.473 669.863 202.398C670.552 203.322 670.916 204.371 670.954 205.545H668.227ZM693.193 223.364C691.617 223.364 690.235 222.989 689.045 222.239C687.863 221.489 686.939 220.439 686.272 219.091C685.613 217.742 685.284 216.167 685.284 214.364C685.284 212.545 685.613 210.958 686.272 209.602C686.939 208.246 687.863 207.193 689.045 206.443C690.235 205.693 691.617 205.318 693.193 205.318C694.769 205.318 696.147 205.693 697.329 206.443C698.519 207.193 699.443 208.246 700.102 209.602C700.769 210.958 701.102 212.545 701.102 214.364C701.102 216.167 700.769 217.742 700.102 219.091C699.443 220.439 698.519 221.489 697.329 222.239C696.147 222.989 694.769 223.364 693.193 223.364ZM693.193 220.955C694.39 220.955 695.375 220.648 696.147 220.034C696.92 219.42 697.492 218.614 697.863 217.614C698.235 216.614 698.42 215.53 698.42 214.364C698.42 213.197 698.235 212.11 697.863 211.102C697.492 210.095 696.92 209.28 696.147 208.659C695.375 208.038 694.39 207.727 693.193 207.727C691.996 207.727 691.011 208.038 690.238 208.659C689.466 209.28 688.894 210.095 688.522 211.102C688.151 212.11 687.966 213.197 687.966 214.364C687.966 215.53 688.151 216.614 688.522 217.614C688.894 218.614 689.466 219.42 690.238 220.034C691.011 220.648 691.996 220.955 693.193 220.955ZM718.438 199.727V223H715.756V199.727H718.438ZM744.91 215.864V205.545H747.591V223H744.91V220.045H744.728C744.319 220.932 743.682 221.686 742.819 222.307C741.955 222.92 740.864 223.227 739.546 223.227C738.455 223.227 737.485 222.989 736.637 222.511C735.788 222.027 735.122 221.299 734.637 220.33C734.152 219.352 733.91 218.121 733.91 216.636V205.545H736.591V216.455C736.591 217.727 736.947 218.742 737.66 219.5C738.379 220.258 739.296 220.636 740.41 220.636C741.076 220.636 741.754 220.466 742.444 220.125C743.141 219.784 743.724 219.261 744.194 218.557C744.671 217.852 744.91 216.955 744.91 215.864ZM770.654 205.545V207.818H761.609V205.545H770.654ZM764.245 201.364H766.927V218C766.927 218.758 767.037 219.326 767.256 219.705C767.484 220.076 767.772 220.326 768.12 220.455C768.476 220.576 768.851 220.636 769.245 220.636C769.541 220.636 769.783 220.621 769.972 220.591C770.162 220.553 770.313 220.523 770.427 220.5L770.972 222.909C770.791 222.977 770.537 223.045 770.211 223.114C769.885 223.189 769.472 223.227 768.972 223.227C768.215 223.227 767.472 223.064 766.745 222.739C766.025 222.413 765.427 221.917 764.95 221.25C764.48 220.583 764.245 219.742 764.245 218.727V201.364ZM785.248 223V205.545H787.93V223H785.248ZM786.612 202.636C786.089 202.636 785.638 202.458 785.26 202.102C784.888 201.746 784.703 201.318 784.703 200.818C784.703 200.318 784.888 199.89 785.26 199.534C785.638 199.178 786.089 199 786.612 199C787.135 199 787.582 199.178 787.953 199.534C788.332 199.89 788.521 200.318 788.521 200.818C788.521 201.318 788.332 201.746 787.953 202.102C787.582 202.458 787.135 202.636 786.612 202.636ZM810.493 223.364C808.917 223.364 807.535 222.989 806.345 222.239C805.163 221.489 804.239 220.439 803.573 219.091C802.913 217.742 802.584 216.167 802.584 214.364C802.584 212.545 802.913 210.958 803.573 209.602C804.239 208.246 805.163 207.193 806.345 206.443C807.535 205.693 808.917 205.318 810.493 205.318C812.069 205.318 813.448 205.693 814.629 206.443C815.819 207.193 816.743 208.246 817.402 209.602C818.069 210.958 818.402 212.545 818.402 214.364C818.402 216.167 818.069 217.742 817.402 219.091C816.743 220.439 815.819 221.489 814.629 222.239C813.448 222.989 812.069 223.364 810.493 223.364ZM810.493 220.955C811.69 220.955 812.675 220.648 813.448 220.034C814.22 219.42 814.792 218.614 815.163 217.614C815.535 216.614 815.72 215.53 815.72 214.364C815.72 213.197 815.535 212.11 815.163 211.102C814.792 210.095 814.22 209.28 813.448 208.659C812.675 208.038 811.69 207.727 810.493 207.727C809.296 207.727 808.311 208.038 807.538 208.659C806.766 209.28 806.194 210.095 805.823 211.102C805.451 212.11 805.266 213.197 805.266 214.364C805.266 215.53 805.451 216.614 805.823 217.614C806.194 218.614 806.766 219.42 807.538 220.034C808.311 220.648 809.296 220.955 810.493 220.955ZM835.738 212.5V223H833.056V205.545H835.647V208.273H835.874C836.283 207.386 836.904 206.674 837.738 206.136C838.571 205.591 839.647 205.318 840.965 205.318C842.147 205.318 843.181 205.561 844.067 206.045C844.954 206.523 845.643 207.25 846.135 208.227C846.628 209.197 846.874 210.424 846.874 211.909V223H844.192V212.091C844.192 210.72 843.836 209.652 843.124 208.886C842.412 208.114 841.435 207.727 840.192 207.727C839.336 207.727 838.571 207.913 837.897 208.284C837.23 208.655 836.704 209.197 836.317 209.909C835.931 210.621 835.738 211.485 835.738 212.5ZM874.698 209.455L872.289 210.136C872.138 209.735 871.914 209.345 871.619 208.966C871.331 208.58 870.937 208.261 870.437 208.011C869.937 207.761 869.297 207.636 868.516 207.636C867.448 207.636 866.558 207.883 865.846 208.375C865.141 208.86 864.789 209.477 864.789 210.227C864.789 210.894 865.032 211.42 865.516 211.807C866.001 212.193 866.759 212.515 867.789 212.773L870.38 213.409C871.941 213.788 873.103 214.367 873.869 215.148C874.634 215.92 875.016 216.917 875.016 218.136C875.016 219.136 874.728 220.03 874.153 220.818C873.585 221.606 872.789 222.227 871.766 222.682C870.744 223.136 869.554 223.364 868.198 223.364C866.418 223.364 864.944 222.977 863.778 222.205C862.611 221.432 861.872 220.303 861.562 218.818L864.107 218.182C864.35 219.121 864.808 219.826 865.482 220.295C866.164 220.765 867.054 221 868.153 221C869.403 221 870.395 220.735 871.13 220.205C871.872 219.667 872.244 219.023 872.244 218.273C872.244 217.667 872.032 217.159 871.607 216.75C871.183 216.333 870.532 216.023 869.653 215.818L866.744 215.136C865.145 214.758 863.971 214.17 863.221 213.375C862.478 212.572 862.107 211.568 862.107 210.364C862.107 209.379 862.384 208.508 862.937 207.75C863.497 206.992 864.259 206.398 865.221 205.966C866.191 205.534 867.289 205.318 868.516 205.318C870.244 205.318 871.6 205.697 872.585 206.455C873.577 207.212 874.282 208.212 874.698 209.455Z" fill="#8A8A8A"/>
</svg>
